<?xml version="1.0" encoding="utf-8"?>
<!-- Generator: Adobe Illustrator 13.0.0, SVG Export Plug-In . SVG Version: 6.00 Build 14948)  -->
<!DOCTYPE svg PUBLIC "-//W3C//DTD SVG 1.1//EN" "http://www.w3.org/Graphics/SVG/1.1/DTD/svg11.dtd">
<svg version="1.1" xmlns="http://www.w3.org/2000/svg" xmlns:xlink="http://www.w3.org/1999/xlink" x="0px" y="0px"
	 width="124.739px" height="122.541px" viewBox="0 0 124.739 122.541" enable-background="new 0 0 124.739 122.541"
	 xml:space="preserve">
<g id="Layer_1" display="none">
	<linearGradient id="SVGID_1_" gradientUnits="userSpaceOnUse" x1="2.3696" y1="62.1401" x2="117.1523" y2="62.1401">
		<stop  offset="0" style="stop-color:#FFFFFF"/>
		<stop  offset="1" style="stop-color:#000033"/>
	</linearGradient>
	<circle display="inline" fill="url(#SVGID_1_)" cx="59.761" cy="62.14" r="57.391"/>
	
		<line display="inline" fill="none" stroke="#FFFFFF" stroke-width="3" stroke-linecap="round" stroke-linejoin="round" x1="1.5" y1="61.271" x2="123.239" y2="61.271"/>
	<path display="inline" fill="none" stroke="#FFFFFF" stroke-width="3" stroke-linecap="round" stroke-linejoin="round" d="
		M1.5,49.966h42.608c0,0,68.403,3.63,68.403-15.044"/>
	<path display="inline" fill="none" stroke="#FFFFFF" stroke-width="3" stroke-linecap="round" stroke-linejoin="round" d="
		M1.5,38.662h41.739c0,0,54.408,3.278,54.408-23.485"/>
	<path display="inline" fill="none" stroke="#FFFFFF" stroke-width="3" stroke-linecap="round" stroke-linejoin="round" d="
		M1.5,27.358h37.391c0,0,28.186-0.166,28.186-25.858"/>
	<path display="inline" fill="none" stroke="#FFFFFF" stroke-width="3" stroke-linecap="round" stroke-linejoin="round" d="
		M1.5,72.574h42.608c0,0,68.403-3.629,68.403,15.045"/>
	<path display="inline" fill="none" stroke="#FFFFFF" stroke-width="3" stroke-linecap="round" stroke-linejoin="round" d="
		M1.5,83.878h41.739c0,0,54.408-3.277,54.408,23.484"/>
	<path display="inline" fill="none" stroke="#FFFFFF" stroke-width="3" stroke-linecap="round" stroke-linejoin="round" d="
		M1.5,95.183h37.391c0,0,28.186,0.166,28.186,25.857"/>
</g>
<g id="Layer_3" display="none">
	<circle display="inline" fill="#FF4900" cx="59.761" cy="62.14" r="57.391"/>
</g>
<g id="Layer_2">
	<linearGradient id="SVGID_2_" gradientUnits="userSpaceOnUse" x1="1.6479" y1="62.1401" x2="119.874" y2="62.1401">
		<stop  offset="0" style="stop-color:#FFFFFF"/>
		<stop  offset="1" style="stop-color:#FF4900"/>
	</linearGradient>
	<circle fill="url(#SVGID_2_)" cx="60.761" cy="62.14" r="59.113"/>
	
		<line fill="none" stroke="#FFFFFF" stroke-width="3" stroke-linecap="round" stroke-linejoin="round" x1="3.291" y1="61.271" x2="117.887" y2="61.271"/>
	<path fill="none" stroke="#FFFFFF" stroke-width="3" stroke-linecap="round" stroke-linejoin="round" d="M5.221,49.966h39.888
		c0,0,59.9,3.179,67.593-11.716"/>
	<path fill="none" stroke="#FFFFFF" stroke-width="3" stroke-linecap="round" stroke-linejoin="round" d="M8.529,38.662h35.71
		c0,0,49.31,2.971,54.044-19.835"/>
	<path fill="none" stroke="#FFFFFF" stroke-width="3" stroke-linecap="round" stroke-linejoin="round" d="M15.008,27.358h24.883
		c0,0,25.286-0.149,27.957-21.996"/>
	<path fill="none" stroke="#FFFFFF" stroke-width="3" stroke-linecap="round" stroke-linejoin="round" d="M4.394,72.574h40.715
		c0,0,63.646-3.376,68.152,13.145"/>
	<path fill="none" stroke="#FFFFFF" stroke-width="3" stroke-linecap="round" stroke-linejoin="round" d="M7.702,83.878h36.537
		c0,0,51.696-3.113,54.306,21.515"/>
	<path fill="none" stroke="#FFFFFF" stroke-width="3" stroke-linecap="round" stroke-linejoin="round" d="M13.905,95.183h25.985
		c0,0,26.584,0.156,28.116,23.7"/>
</g>
</svg>
