<?xml version="1.0" encoding="utf-8"?>
<!-- Generator: Adobe Illustrator 13.0.0, SVG Export Plug-In . SVG Version: 6.00 Build 14948)  -->
<!DOCTYPE svg PUBLIC "-//W3C//DTD SVG 1.1//EN" "http://www.w3.org/Graphics/SVG/1.1/DTD/svg11.dtd">
<svg version="1.1" id="Layer_1" xmlns="http://www.w3.org/2000/svg" xmlns:xlink="http://www.w3.org/1999/xlink" x="0px" y="0px"
	 width="124.739px" height="122.541px" viewBox="0 0 124.739 122.541" enable-background="new 0 0 124.739 122.541"
	 xml:space="preserve">
<linearGradient id="SVGID_1_" gradientUnits="userSpaceOnUse" x1="2.3696" y1="62.1401" x2="117.1523" y2="62.1401">
	<stop  offset="0" style="stop-color:#FFFFFF"/>
	<stop  offset="1" style="stop-color:#000033"/>
</linearGradient>
<circle fill="url(#SVGID_1_)" cx="59.761" cy="62.14" r="57.391"/>
<line fill="none" stroke="#FFFFFF" stroke-width="3" stroke-linecap="round" stroke-linejoin="round" x1="1.5" y1="61.271" x2="123.239" y2="61.271"/>
<path fill="none" stroke="#FFFFFF" stroke-width="3" stroke-linecap="round" stroke-linejoin="round" d="M1.5,49.966h42.608
	c0,0,68.403,3.63,68.403-15.044"/>
<path fill="none" stroke="#FFFFFF" stroke-width="3" stroke-linecap="round" stroke-linejoin="round" d="M1.5,38.662h41.739
	c0,0,54.408,3.278,54.408-23.485"/>
<path fill="none" stroke="#FFFFFF" stroke-width="3" stroke-linecap="round" stroke-linejoin="round" d="M1.5,27.358h37.391
	c0,0,28.186-0.166,28.186-25.858"/>
<path fill="none" stroke="#FFFFFF" stroke-width="3" stroke-linecap="round" stroke-linejoin="round" d="M1.5,72.574h42.608
	c0,0,68.403-3.629,68.403,15.045"/>
<path fill="none" stroke="#FFFFFF" stroke-width="3" stroke-linecap="round" stroke-linejoin="round" d="M1.5,83.878h41.739
	c0,0,54.408-3.277,54.408,23.484"/>
<path fill="none" stroke="#FFFFFF" stroke-width="3" stroke-linecap="round" stroke-linejoin="round" d="M1.5,95.183h37.391
	c0,0,28.186,0.166,28.186,25.857"/>
</svg>
