<svg width="138" height="202" viewBox="0 0 138 202" xmlns="http://www.w3.org/2000/svg"><title>Imported Layers</title><g fill="none" fill-rule="evenodd"><path d="M94.886 59.822l9.275 5.357 5.652-9.794-9.274-5.357-5.652 9.792M97.25 48.13l-9.276-5.36-5.65 9.794 9.273 5.358 5.652-9.793M43 142.135l-9.274-5.357-12.34 21.382 9.276 5.357L43 142.135M33.95 165.417l9.275 5.357 12.34-21.382-9.276-5.357-12.34 21.382" fill="#FCC65A"/><path d="M12.913 172.845a5.794 5.794 0 0 0 2.116 7.904l11.82 6.827a5.79 5.79 0 0 0 7.9-2.118l5.574-9.658-21.838-12.615-5.573 9.658" fill="#EE6E30"/><path d="M113.842 32.855l-8.336-4.815L92.12 38.462l19.422 11.22 2.3-16.827" fill="#FFF"/><path d="M105.506 28.04L92.12 38.462l19.422 11.22 2.3-16.827-8.336-4.815" fill="#FDE2AC"/><path d="M5.06 34.188a1.9 1.9 0 0 0 1.89-2.1C5.49 18.25 7.817 8.817 13.51 5.53c7.338-4.237 19.633.767 32.084 13.063a1.9 1.9 0 1 0 2.668-2.705C34.33 2.132 20.63-2.97 11.61 2.24 4.438 6.38 1.518 16.84 3.174 32.488a1.9 1.9 0 0 0 1.885 1.7M132.53 179.313a1.907 1.907 0 0 0-2.026 1.764c-.545 7.83-2.856 12.974-6.868 15.29-8.518 4.923-24.174-2.856-38.96-19.352a1.898 1.898 0 1 0-2.827 2.538c12.673 14.14 25.88 22.053 35.956 22.053 2.855 0 5.46-.636 7.728-1.946 5.174-2.99 8.12-9.153 8.76-18.32a1.9 1.9 0 0 0-1.763-2.027" fill="#3E466E"/><path d="M13.98 40.363" fill="#69C4C6"/><path d="M81.595 160.41l.052-.028a2.866 2.866 0 0 1 3.558.645c2.785 3.268 5.542 6.317 8.247 9.1 15.358 15.805 22.924 16.988 24.364 16.157 1.44-.832 4.2-7.98-1.802-29.188-1.99-7.028-4.672-14.664-7.947-22.69l-3.37 1.947.478 1.152a207.126 207.126 0 0 1 1.666 4.177c.7 1.81 1.345 3.554 1.932 5.226 2.213 6.315 3.602 11.61 4.042 15.543.084.755.135 1.462.148 2.114.01.45 0 .875-.025 1.274-.025.398-.068.77-.13 1.117-.24 1.378-.762 2.332-1.583 2.813l-.012.008-.01.005-.002.002c-.098.056-.2.106-.306.148l-.114.036c-.075.026-.15.053-.23.073l-.144.025c-.073.013-.145.03-.22.037l-.167.01c-.068.003-.132.01-.2.01h-.023l-.156-.008a4.276 4.276 0 0 1-.248-.016c-.058-.007-.117-.017-.176-.026-.083-.012-.165-.023-.25-.04-.062-.013-.127-.03-.19-.044-.086-.02-.17-.04-.256-.064-.068-.02-.137-.04-.205-.063a7.067 7.067 0 0 1-.75-.275 11.323 11.323 0 0 1-1.037-.5 16.055 16.055 0 0 1-.55-.31l-.25-.15-.317-.2-.254-.165c-.11-.073-.223-.15-.335-.227l-.254-.175c-.118-.084-.238-.17-.357-.258-.085-.06-.168-.12-.253-.183-.13-.097-.263-.2-.395-.3-.077-.06-.153-.116-.23-.177a41.028 41.028 0 0 1-.48-.383l-.163-.13a41.15 41.15 0 0 1-.663-.554l-.104-.09c-.19-.163-.38-.328-.573-.498l-.235-.212a50.87 50.87 0 0 1-.457-.412c-.092-.082-.185-.17-.277-.255a60.08 60.08 0 0 1-.43-.403l-.3-.286-.423-.406-.32-.314a84.908 84.908 0 0 1-1.17-1.175 61.537 61.537 0 0 1-.77-.794c-.115-.12-.23-.243-.346-.366l-.436-.465a69.392 69.392 0 0 1-.798-.863l-.35-.386c-.153-.168-.306-.338-.46-.51l-.357-.398-.472-.534-.35-.4c-.164-.187-.328-.377-.492-.567l-.347-.402-.52-.608c-.108-.13-.218-.257-.328-.388-.197-.234-.395-.473-.595-.71l-.26-.315c-.284-.34-.57-.686-.855-1.037l-.017-.02c-.294-.36-.59-.724-.886-1.092l-.23-.287c-.22-.276-.442-.55-.664-.83l-.313-.398a221.232 221.232 0 0 1-1.88-2.413l-.475-.62-12.813 7.402c2.72 3.53 5.413 6.858 8.06 9.965-1.17-1.386-.782-3.505.81-4.376M28.713 36.906a23.3 23.3 0 0 1-.146-2.078 15.47 15.47 0 0 1-.002-.683c.044-2.335.61-3.898 1.75-4.556l.025-.013c.095-.053.192-.1.293-.142l.128-.04c.072-.025.14-.05.215-.068l.16-.03c.068-.01.135-.026.205-.034.058-.006.12-.006.178-.01.063-.003.125-.01.19-.01h.02l.164.01c.08.003.16.005.242.015.06.006.12.017.18.026.08.012.162.023.245.04.064.012.13.03.195.045a5.247 5.247 0 0 1 .458.125c.087.027.174.054.262.086l.216.08a10.22 10.22 0 0 1 1.312.612c.08.042.158.086.238.13a16.333 16.333 0 0 1 .883.534c.08.05.162.103.244.157.115.076.232.156.35.236.08.054.16.108.24.166.124.086.25.178.375.27.078.056.155.11.235.17.137.1.276.21.416.317l.21.16c.17.132.34.27.514.412l.128.102a50.98 50.98 0 0 1 1.347 1.147c.062.056.126.116.19.172.167.15.333.298.503.453.08.072.162.15.243.224.155.143.31.287.467.435l.267.254c.152.146.304.29.458.44l.284.28a100.623 100.623 0 0 1 .754.75 107.876 107.876 0 0 1 .765.78l.462.482.314.33c.155.165.31.333.47.5.105.115.212.23.32.345l.48.525.32.35.498.554c.104.116.21.232.314.35l.515.584.312.355c.18.206.36.415.542.626l.292.34c.198.23.397.463.596.698.084.1.168.197.252.298.228.27.457.544.687.82l.173.208c.584.704 1.176 1.428 1.774 2.17l.124.156c.256.317.512.637.77.962l.245.31c.218.276.436.552.655.832.103.13.206.265.31.397.2.256.4.513.6.774l.34.443c.193.25.384.5.577.753l.07.09 3.37-1.948c-5.356-6.923-10.672-13.125-15.805-18.41-15.36-15.803-22.925-16.986-24.364-16.154-1.44.832-4.2 7.98 1.802 29.188a186.61 186.61 0 0 0 3.44 10.803 2.876 2.876 0 0 1-1.267 3.446l-.058.035c-1.556.898-3.55.157-4.144-1.54-.532-1.522-1.04-3.02-1.517-4.49 1.795 5.517 3.977 11.405 6.52 17.568l12.813-7.402c-4.65-11.128-7.535-20.31-8.203-26.314" fill="#9FD9DF"/><path d="M31.525 13.81c-6.315-4.005-11.54-5.28-15.1-3.224 3.56-2.055 8.785-.78 15.1 3.225M104.162 187.124" fill="#69C4C6"/><path d="M80.883 164.903c.482.564.962 1.12 1.44 1.67l.108.125c1.57 1.8 3.12 3.518 4.648 5.15l.13.14a204.794 204.794 0 0 0 1.56 1.642c.448.465.893.922 1.336 1.37l.138.14a136.044 136.044 0 0 0 4.36 4.225l.206.19a109.135 109.135 0 0 0 2.808 2.5c.92.79 1.826 1.54 2.717 2.243l.07.055c.404.318.803.627 1.2.927l.275.207a67.085 67.085 0 0 0 2.284 1.637c.085.058.17.117.254.173.82.554 1.625 1.064 2.41 1.53l.193.11c.317.186.63.365.943.535.107.06.213.115.32.17a35.453 35.453 0 0 0 1.14.585c.27.132.536.256.8.375.095.042.19.087.283.127.35.152.695.296 1.035.426l.01.005c.35.134.692.253 1.03.364.084.027.165.05.248.075.247.076.49.148.732.212a17.1 17.1 0 0 0 1.284.282c.215.038.427.068.636.094.092.01.185.025.276.034.285.03.566.048.84.055l.032.002a9.67 9.67 0 0 0 .837-.022c.083-.006.163-.017.245-.025.19-.018.375-.04.558-.07a8.28 8.28 0 0 0 .776-.168c.092-.025.184-.05.274-.08.168-.05.33-.11.492-.175.076-.03.154-.057.23-.09.23-.1.454-.21.67-.336l.007-.003c5.914-3.415 6.173-15.417 1.813-32.346-.582-2.257-1.245-4.6-1.988-7.025a190.19 190.19 0 0 0-1.175-3.694 211.882 211.882 0 0 0-1.98-5.748 264.567 264.567 0 0 0-4.26-11.014l3.02-1.744a2.592 2.592 0 0 0 1.294-2.243V74.345a2.59 2.59 0 0 0-1.293-2.243l-6.96-4.02 7.464-12.937 5.586-40.847c.186-1.356-.498-2.482-1.498-3.06-1.002-.578-2.32-.606-3.402.235l-32.688 25.45-7.35 12.74-7.16-4.136a2.586 2.586 0 0 0-2.588 0l-2.993 1.728C52.415 31.47 40.795 19.693 31.525 13.81c-6.315-4.005-11.54-5.28-15.1-3.224a6.89 6.89 0 0 0-.628.416c-.064.047-.123.098-.185.147-.137.107-.272.22-.402.338-.068.063-.134.13-.2.195a7.94 7.94 0 0 0-.86 1.012c-.052.072-.105.14-.154.215-.13.192-.253.393-.372.6l-.062.104c-.138.25-.268.51-.39.78-.03.066-.057.137-.086.205-.09.206-.176.417-.258.636a14.882 14.882 0 0 0-.396 1.237c-.06.22-.117.446-.17.677-.024.103-.05.205-.073.31-.06.28-.115.565-.165.857-.01.062-.024.12-.033.18-.06.37-.113.746-.16 1.135l-.01.104c-.038.346-.07.7-.098 1.063-.008.103-.013.21-.02.317a35.034 35.034 0 0 0-.07 2.248c-.002.115-.003.23-.002.346.003.377.01.76.023 1.148l.006.2c.036.946.1 1.93.194 2.952.007.07.015.143.02.215.043.433.09.87.14 1.317l.04.33c.052.425.108.857.168 1.294l.044.315c.07.486.144.978.225 1.476l.025.156c.28 1.714.627 3.506 1.036 5.37a119.104 119.104 0 0 0 .93 3.92l.025.095a156.423 156.423 0 0 0 1.707 6.165l.013.043c.202.677.41 1.362.626 2.052l.05.158c.215.686.435 1.376.66 2.073l.023.067c.48 1.472.985 2.97 1.52 4.494a2.87 2.87 0 0 0 4.142 1.535l.058-.034a2.876 2.876 0 0 0 1.268-3.445 186.61 186.61 0 0 1-3.44-10.803c-6-21.21-3.242-28.356-1.802-29.188 1.44-.832 9.005.35 24.364 16.155 5.133 5.283 10.45 11.485 15.805 18.408l-3.37 1.947h-.002l-.068-.09-.577-.752-.34-.442c-.2-.26-.4-.517-.6-.773l-.31-.397c-.22-.28-.437-.556-.655-.83-.08-.105-.164-.21-.245-.312a214.57 214.57 0 0 0-.77-.962l-.123-.155c-.598-.742-1.19-1.466-1.774-2.17-.058-.07-.116-.138-.174-.21-.23-.274-.46-.55-.688-.818l-.252-.298c-.2-.235-.398-.47-.596-.7l-.292-.338-.543-.627-.313-.356-.515-.583-.314-.35c-.167-.188-.334-.373-.5-.555l-.318-.35-.48-.524-.32-.343c-.16-.168-.315-.336-.47-.5l-.315-.33a86.71 86.71 0 0 0-1.98-2.013l-.285-.28c-.154-.15-.306-.294-.458-.44-.09-.085-.18-.17-.267-.255-.158-.15-.312-.293-.467-.436l-.243-.225a50.92 50.92 0 0 0-.503-.454c-.064-.056-.128-.116-.19-.172a50.98 50.98 0 0 0-.677-.587 36.7 36.7 0 0 0-.67-.56l-.128-.102c-.173-.14-.345-.28-.515-.412-.07-.055-.14-.106-.21-.16-.14-.108-.278-.216-.415-.317-.08-.06-.157-.114-.235-.17-.126-.092-.25-.184-.374-.27-.082-.058-.162-.112-.242-.167-.117-.08-.234-.16-.35-.237-.08-.054-.162-.106-.243-.157a15.364 15.364 0 0 0-.883-.533c-.08-.045-.16-.09-.238-.13a12.44 12.44 0 0 0-1.04-.503 10.22 10.22 0 0 0-.27-.11c-.073-.026-.146-.055-.217-.08a6.675 6.675 0 0 0-.262-.085 5.247 5.247 0 0 0-.458-.126c-.065-.016-.13-.033-.196-.045-.084-.017-.165-.028-.245-.04-.06-.01-.122-.02-.18-.026-.084-.01-.163-.012-.243-.016l-.163-.01h-.022c-.065 0-.127.008-.19.01-.06.005-.12.005-.178.01-.07.01-.137.024-.205.036l-.16.03c-.074.017-.143.042-.214.066l-.127.04c-.1.042-.198.09-.293.143l-.02.01-.005.002h-.002c-1.137.658-1.704 2.22-1.748 4.555-.005.22-.004.45.002.683a23.3 23.3 0 0 0 .146 2.078c.668 6.003 3.554 15.186 8.203 26.315l-15.374 8.882a2.59 2.59 0 0 0-1.295 2.243v53.152c0 .925.494 1.78 1.295 2.243l7.16 4.135-20.815 36.067c-3.2 5.544-1.3 12.634 4.24 15.834l11.822 6.83c5.54 3.2 12.627 1.3 15.826-4.244l20.813-36.067 6.96 4.02c.8.463 1.788.463 2.588 0l15.4-8.895.475.62a203.43 203.43 0 0 0 .937 1.21l.357.458c.196.25.39.497.586.744l.313.397c.222.28.443.554.663.83l.23.286c.296.368.59.733.885 1.093l.017.018c.286.35.57.696.854 1.037l.26.314.596.71.33.387c.172.204.346.408.517.608.115.136.23.268.346.402.164.19.328.38.492.567l.35.4.47.534c.12.134.24.266.358.4a139.158 139.158 0 0 0 1.257 1.38l.35.377.438.465a65.218 65.218 0 0 0 .775.81 61.537 61.537 0 0 0 .76.778 84.124 84.124 0 0 0 .752.748l.32.314.422.406.3.286c.144.137.288.27.43.403.093.085.186.173.278.256.154.142.305.278.457.413l.235.212c.193.17.384.335.573.497l.104.09c.224.19.444.376.662.554l.163.13c.16.132.322.26.48.384.076.06.152.117.23.176.13.102.264.204.394.3.085.064.168.123.252.184.118.087.238.174.356.258l.255.175c.113.077.226.154.336.227.086.057.17.11.255.164.108.068.214.136.32.2.083.052.166.1.25.15a16.225 16.225 0 0 0 .548.31 12.004 12.004 0 0 0 1.036.5 8.407 8.407 0 0 0 .75.277c.07.023.138.045.206.064.086.024.17.044.255.064l.19.044c.086.017.168.028.25.04.06.01.12.02.177.026.085.01.167.012.25.016l.155.008h.022c.068 0 .132-.007.2-.01l.165-.01c.076-.008.148-.024.22-.037l.146-.026c.08-.02.155-.048.23-.074l.114-.036c.105-.042.208-.092.306-.148l.012-.006.012-.008.004-.002c.82-.483 1.34-1.435 1.58-2.81.06-.347.104-.72.13-1.118.024-.4.033-.824.024-1.274a23.47 23.47 0 0 0-.148-2.114c-.44-3.933-1.83-9.228-4.042-15.543a175.596 175.596 0 0 0-1.93-5.225 207.126 207.126 0 0 0-1.667-4.177l-.477-1.152 3.37-1.946c3.274 8.025 5.957 15.66 7.946 22.69 6 21.207 3.24 28.355 1.802 29.187-1.44.83-9.006-.352-24.364-16.157-2.72-2.798-5.49-5.865-8.292-9.152a2.758 2.758 0 0 0-3.42-.643 3.005 3.005 0 0 0-.956 4.455l.008.01.09.106zM104.16 65.18l-9.274-5.358 5.652-9.793 9.274 5.356-5.65 9.793zm1.346-37.14l8.336 4.815-2.3 16.826L92.12 38.464l13.386-10.423zM87.974 42.77l9.275 5.36-5.653 9.792-9.274-5.358 5.65-9.793zM38.27 56.42c-2.98-7.693-4.502-13.01-5.248-16.64 4.123 3.972 9.122 9.872 14.628 17.24l-7.415 4.285c-.692-1.667-1.35-3.3-1.966-4.885zm-4.544 80.358L43 142.135l-12.338 21.382-9.275-5.357 12.34-21.382zm1.025 48.68a5.79 5.79 0 0 1-7.9 2.12l-11.82-6.83a5.794 5.794 0 0 1-2.117-7.903l5.573-9.658 21.838 12.615-5.573 9.657zm8.475-14.684l-9.274-5.357 12.34-21.382 9.274 5.357-12.34 21.382zm45.633-25.27l7.46-4.31c3.662 8.474 6.315 15.796 7.758 21.43-2.79-2.433-6.73-6.464-12.11-13.155a221.07 221.07 0 0 1-3.108-3.967zm-20.013-2.05L32.027 122.19v-9.957l48.408-27.96-11.59-6.695-36.818 21.267V79.654l36.818-21.267 36.817 21.267v9.957l-48.408 27.962 11.59 6.695L105.662 103v19.188l-36.817 21.267z" fill="#3E466E"/><path d="M33.69 29.67c-.07-.026-.144-.055-.215-.08l.216.08M32.755 29.38c-.065-.017-.13-.034-.196-.046.064.012.13.03.195.045M54.54 50.067l-.31-.397c.103.13.206.265.31.397M48.12 42.25l-.313-.356.312.355M47.292 41.31l-.314-.35c.104.116.21.232.314.35M49.802 44.212l-.252-.298c.084.1.168.197.252.298M46.48 40.405l-.32-.35.32.35M52.56 47.566l-.123-.155.124.156M50.663 45.24c-.058-.07-.116-.138-.174-.21.057.072.115.14.173.21M55.48 51.283c-.113-.147-.226-.296-.34-.442l.34.443M56.125 52.125l-.068-.09.068.09M53.575 48.84c-.08-.105-.164-.21-.245-.312l.245.31M48.954 43.215l-.292-.34.292.34M44.89 38.686l-.315-.33.314.33M37.567 31.946c-.08-.06-.157-.114-.235-.17.078.056.155.11.235.17M36.367 31.103c-.082-.054-.163-.106-.244-.157.08.05.162.103.244.157M38.835 32.937l-.128-.102.128.102M36.958 31.506c-.082-.058-.162-.112-.242-.167.08.054.16.108.242.166M38.192 32.423c-.07-.055-.14-.106-.21-.16.07.054.14.105.21.16M42.594 36.344l-.284-.28.284.28M41.852 35.624c-.09-.085-.18-.17-.267-.255l.267.254M41.118 34.934l-.243-.225c.08.072.162.15.243.224M40.372 34.256c-.064-.056-.128-.116-.19-.172.062.056.126.116.19.172M101.923 165.782l.104.09-.104-.09M108.315 169.86c.068.023.137.045.205.064-.068-.02-.137-.04-.205-.063M104.566 167.858l.255.175-.254-.175M102.69 166.426l.163.13-.164-.13M103.332 166.94l.23.176c-.077-.06-.153-.115-.23-.176M32.315 29.294c-.06-.01-.122-.02-.18-.026.058.006.12.017.18.026M108.775 169.988l.19.044-.19-.044M105.156 168.26c.086.057.17.11.255.164-.083-.054-.168-.107-.254-.164M105.73 168.625l.25.15-.25-.15M109.797 170.122l-.156-.008.157.008M112.808 166.955c-.24 1.376-.76 2.328-1.58 2.81l-.004.003c.82-.48 1.343-1.435 1.584-2.813M110.78 169.966l.114-.036-.114.036M110.406 170.065l.145-.026-.144.025M110.02 170.112l.165-.01-.166.01M109.216 170.072c.06.01.118.02.176.026-.058-.007-.117-.017-.176-.026M111.2 169.78v.002h.002M103.957 167.417c.085.063.168.122.252.183-.085-.06-.168-.12-.253-.183M28.565 34.145c.044-2.334.61-3.897 1.748-4.555h.002c-1.14.657-1.706 2.22-1.75 4.555M31.73 29.243l.162.01-.163-.01M87.893 150.452l.313.397-.313-.398M88.87 151.68l.23.286-.23-.287M86.95 149.25l.357.458-.357-.458M31.135 29.298l-.16.03.16-.03M31.518 29.253c-.06.004-.12.004-.178.01.058-.006.12-.006.178-.01M30.32 29.586l.02-.01-.025.013.005-.004M30.76 29.394l-.127.04.128-.04M99.65 163.716l.3.286-.3-.286M95.035 158.946l.352.386-.352-.386M98.907 162.996l.32.314-.32-.314M101.115 165.073l.235.212-.235-.212M100.38 164.405c.093.085.186.173.278.256-.092-.082-.185-.17-.277-.255M93.398 157.104l.35.4-.35-.4M94.22 158.038l.356.4c-.118-.134-.237-.266-.357-.4M90.856 154.115l.26.314c-.086-.106-.173-.21-.26-.315M91.712 155.14l.33.387c-.11-.13-.22-.257-.33-.388M89.985 153.06l.017.018-.017-.02M92.56 156.135c.115.136.23.268.346.402l-.347-.402M97.395 161.47" fill="#FFF"/><path d="M11.42 45.775a3.955 3.955 0 1 0-7.908.262 3.955 3.955 0 0 0 7.907-.262M4.235 38.796a1.975 1.975 0 1 0-3.948.13 1.975 1.975 0 0 0 3.948-.13M52.245 23.752a1.975 1.975 0 1 0-2.038-1.91 1.974 1.974 0 0 0 2.038 1.91M133.314 167.902a3.956 3.956 0 1 0 .262 7.908 3.954 3.954 0 0 0 3.822-4.086 3.954 3.954 0 0 0-4.084-3.822M129.424 164.814a1.975 1.975 0 1 0-.13-3.947 1.974 1.974 0 1 0 .13 3.947" fill="#3E466E"/><path d="M103.073 104.496L69.707 123.77a1.726 1.726 0 0 1-1.726 0l-8.137-4.702c-1.15-.665-1.15-2.327 0-2.99l44.956-25.97c.533-.307.862-.878.862-1.495V80.65c0-.616-.33-1.186-.863-1.494l-35.092-20.27a1.726 1.726 0 0 0-1.726 0L32.89 79.155a1.727 1.727 0 0 0-.863 1.495v15.2c0 1.33 1.438 2.16 2.59 1.496L67.98 78.073a1.726 1.726 0 0 1 1.726 0l8.138 4.7c1.15.666 1.15 2.327 0 2.992L32.89 111.733c-.534.31-.863.878-.863 1.496v7.96c0 .618.33 1.188.863 1.496l35.092 20.27a1.726 1.726 0 0 0 1.726 0l35.09-20.27c.535-.308.864-.878.864-1.495v-15.2c0-1.328-1.44-2.16-2.59-1.494" fill="#FFF"/></g></svg>